# xmcd
#
# Track frame offsets:
#	150
#	12015
#	24142
#	36929
#	50414
#	65511
#	78201
#	92443
#	104630
#	120252
#	132724
#	146741
#
# Disc length: 2163 seconds
#
# Revision: 0
# Processed by: cddbd v1.5.2PL0 Copyright (c) Steve Scherf et al.
# Submitted via: audiograbber 1.83.01
#
DISCID=9608710c
DTITLE=Will Tura - Will in Nashville
DYEAR=1976
DGENRE=Country
TTITLE0=Hello Nashville
TTITLE1=Avond voor mij, ochtend voor jou
TTITLE2=Zeg mij dat ik fantastisch ben
TTITLE3=Doña Carmela
TTITLE4=Yodelin' Joe
TTITLE5=Ik zie je overal
TTITLE6=Mijn eenzaamhied
TTITLE7=Bier, bier, bier
TTITLE8=Zing met mij een simpel lied
TTITLE9=Hoboken USA
TTITLE10=Telefoon bezet
TTITLE11=Weldra thuis
EXTD=
EXTT0=
EXTT1=
EXTT2=
EXTT3=
EXTT4=
EXTT5=
EXTT6=
EXTT7=
EXTT8=
EXTT9=
EXTT10=
EXTT11=
PLAYORDER=
